<?xml version="1.0" encoding="UTF-8" standalone="no"?><!DOCTYPE svg PUBLIC "-//W3C//DTD SVG 1.1//EN" "http://www.w3.org/Graphics/SVG/1.1/DTD/svg11.dtd"><svg width="100%" height="100%" viewBox="0 0 444 444" version="1.1" xmlns="http://www.w3.org/2000/svg" xmlns:xlink="http://www.w3.org/1999/xlink" xml:space="preserve" xmlns:serif="http://www.serif.com/" style="fill-rule:evenodd;clip-rule:evenodd;stroke-linejoin:round;stroke-miterlimit:2;"><rect id="icon" x="0.577" y="0.347" width="442.833" height="442.833" style="fill:none;"/><g id="ears"><path d="M252.8,31.971c-0,-4.937 2.485,-9.543 6.612,-12.253c4.127,-2.71 9.341,-3.16 13.872,-1.197c57.474,24.656 103.707,82.19 125.831,155.688c10.794,35.561 -6.239,73.642 -39.942,89.3c-33.286,15.437 -69.092,23.818 -106.373,23.818l-0,-255.356Z" style="fill:#fff;"/><path d="M191.187,31.718c0,-4.877 -2.453,-9.426 -6.527,-12.107c-4.074,-2.68 -9.223,-3.131 -13.701,-1.2c-57.675,24.63 -104.063,82.354 -126.182,156.113c-10.695,35.375 6.238,73.233 39.736,88.843c33.37,15.528 69.28,23.96 106.674,23.96l0,-255.609Z" style="fill:#fff;"/><g id="heads"><path d="M273.593,58.051c0,-2.698 1.488,-5.176 3.87,-6.443c2.382,-1.267 5.268,-1.117 7.506,0.39c40.24,27.663 73.96,69.446 90.903,112.395c10.141,25.901 -1.572,55.226 -26.766,67.015c-23.899,11.135 -49.869,17.185 -75.513,17.185l0,-190.542Z"/><path d="M170.393,58.051c0,-2.698 -1.488,-5.176 -3.869,-6.443c-2.382,-1.267 -5.269,-1.117 -7.506,0.39c-39.909,27.435 -73.405,68.759 -90.482,111.334c-10.547,26.523 1.514,56.66 27.447,68.584c23.594,10.811 49.16,16.677 74.41,16.677l0,-190.542Z"/></g></g><circle id="head" cx="221.993" cy="292.291" r="140.965" style="fill:#fff;"/><path d="M30.449,279.785c0,84.76 85.757,153.471 191.544,153.471c105.787,0 191.544,-68.711 191.544,-153.471l-191.544,-0l-191.544,-0Z" style="fill:#fff;"/><g id="nose"><ellipse cx="222.052" cy="298.867" rx="25.47" ry="12.735"/><circle cx="222.052" cy="311.602" r="12.735"/><path d="M198.668,293.957c4.97,-4.97 15.201,-2.809 22.832,4.823c7.632,7.631 9.793,17.862 4.823,22.832c-4.97,4.97 -15.201,2.809 -22.832,-4.822c-7.632,-7.632 -9.793,-17.863 -4.823,-22.833Z"/><path d="M245.318,293.957c-4.97,-4.97 -15.2,-2.809 -22.832,4.823c-7.631,7.631 -9.792,17.862 -4.822,22.832c4.97,4.97 15.201,2.809 22.832,-4.822c7.632,-7.632 9.792,-17.863 4.822,-22.833Z"/></g><g id="eyes"><g id="rightEye"><path d="M163.691,215.932c20.298,-0 34.726,20.861 32.2,46.555c-2.526,25.695 -21.056,46.556 -41.354,46.556c-20.298,-0 -34.727,-20.861 -32.2,-46.556c2.526,-25.694 21.056,-46.555 41.354,-46.555Z"/></g><g id="leftEye"><path d="M280.296,215.932c-20.298,-0 -34.727,20.861 -32.201,46.555c2.527,25.695 21.057,46.556 41.355,46.556c20.298,-0 34.726,-20.861 32.2,-46.556c-2.526,-25.694 -21.057,-46.555 -41.354,-46.555Z"/></g></g></svg>