<?xml version="1.0" encoding="UTF-8" standalone="no"?><!DOCTYPE svg PUBLIC "-//W3C//DTD SVG 1.1//EN" "http://www.w3.org/Graphics/SVG/1.1/DTD/svg11.dtd"><svg width="100%" height="100%" viewBox="0 0 476 240" version="1.1" xmlns="http://www.w3.org/2000/svg" xmlns:xlink="http://www.w3.org/1999/xlink" xml:space="preserve" xmlns:serif="http://www.serif.com/" style="fill-rule:evenodd;clip-rule:evenodd;stroke-linejoin:round;stroke-miterlimit:2;"><rect id="Artboard2" x="0" y="0.296" width="475.097" height="238.763" style="fill:none;"/><g id="Artboard21" serif:id="Artboard2"><g id="vulbyte-logo" serif:id="vulbyte logo"><g id="e"><path d="M429.26,150.415l0.003,0c7.398,0 13.396,5.995 13.4,13.392c0,0.002 0,0.003 0,0.003l-13.394,0l-0.009,-13.395Z" style="fill:#fff;"/><path d="M429.26,163.81l-2.09,0c-5.523,0 -10.002,-4.476 -10.006,-10c-0.001,-1.945 -0.002,-3.395 -0.002,-3.395l12.09,0l0.008,13.395Z" style="fill:#fff;"/><path d="M392.349,122.573c-0,-18.493 14.991,-33.485 33.484,-33.485c17.282,-0 31.506,13.092 33.295,29.9c0.087,0.912 -0.215,1.818 -0.831,2.495c-0.617,0.678 -1.49,1.064 -2.406,1.064c-3.957,0.026 -9.929,0.026 -9.929,0.026c0,-11.118 -9.012,-20.13 -20.129,-20.13c-11.117,0 -20.129,9.012 -20.129,20.13l-13.355,-0Z" style="fill:#fff;"/><path d="M392.316,130.326c-0,18.493 14.991,33.484 33.484,33.484l0,-13.355c-11.117,-0 -20.129,-9.012 -20.129,-20.129l-13.355,-0Z" style="fill:#fff;"/></g><g id="t"><path d="M369.318,150.418l0.003,0c7.397,0 13.395,5.994 13.4,13.392c-0,0.002 -0,0.003 -0,0.003l-13.395,-0l-0.008,-13.395Z" style="fill:#fff;"/><path d="M349.228,15.831l-0.001,0c-3.552,0 -6.959,1.412 -9.471,3.923c-2.512,2.512 -3.923,5.919 -3.923,9.471c0,30.224 0,101.103 0,101.103l13.395,0l-0,-114.497Z" style="fill:#fff;"/><path d="M369.308,103.196c3.552,0 6.959,-1.411 9.471,-3.923c2.512,-2.512 3.923,-5.918 3.923,-9.471c0,-0 0,-0 0,-0l-33.485,-0l0,13.394l20.091,0Z" style="fill:#fff;"/><path d="M404.456,133.028c0.33,0 0.646,-0.131 0.879,-0.364c0.233,-0.233 0.364,-0.549 0.364,-0.879c0,-2.407 0,-7.679 0,-10.087c0,-0.33 -0.131,-0.646 -0.364,-0.879c-0.233,-0.233 -0.549,-0.364 -0.879,-0.364c-2.544,-0 -8.32,-0 -10.864,-0c-0.33,-0 -0.646,0.131 -0.879,0.364c-0.233,0.233 -0.364,0.549 -0.364,0.879c-0,2.408 -0,7.68 -0,10.087c-0,0.33 0.131,0.646 0.364,0.879c0.233,0.233 0.549,0.364 0.879,0.364c2.544,0 8.32,0 10.864,0Z" style="fill:#fff;"/><path d="M429.309,131.16c-3.145,0 -6.161,-1.249 -8.385,-3.473c-2.224,-2.223 -3.473,-5.24 -3.473,-8.385c-0,0 -0,-0 -0,-0c-0,-0.849 0.687,-1.536 1.536,-1.536c6.583,-0 32.371,-0 38.732,-0c0.377,-0 0.74,0.15 1.007,0.417c0.267,0.267 0.417,0.629 0.417,1.007c-0,0.001 -0,0.002 -0,0.002c-0,6.61 -5.359,11.968 -11.968,11.968c-5.609,0 -12.272,0 -17.866,0Z" style="fill:#fff;"/><path d="M335.833,130.328c0,18.493 14.992,33.485 33.485,33.485l-0,-13.355c-11.117,-0 -20.13,-9.013 -20.13,-20.13l-13.355,0Z" style="fill:#fff;"/></g><g id="by"><path d="M203.479,130.326c0,18.493 14.992,33.484 33.485,33.484l-0,-13.355c-11.117,-0 -20.129,-9.012 -20.129,-20.129l-13.356,-0Z" style="fill:#fff;"/><path d="M237.038,76.588c18.493,-0 33.485,-14.992 33.485,-33.485l-13.356,0c0,11.117 -9.012,20.13 -20.129,20.13l0,13.355Z" style="fill:#fff;"/><path d="M290.92,223.928c18.493,0 33.484,-14.991 33.484,-33.484l-13.355,-0c0,11.117 -9.012,20.129 -20.129,20.129l-0,13.355Z" style="fill:#fff;"/><path d="M291.259,177.049c-18.493,-0 -33.485,14.991 -33.485,33.484l13.356,0c-0,-11.117 9.012,-20.129 20.129,-20.129l-0,-13.355Z" style="fill:#fff;"/><path d="M216.928,49.442l-13.394,-0l-0.051,81.471l13.395,0l0.05,-81.471Z" style="fill:#fff;"/><path d="M237.046,76.588l-13.394,-0c-0,-0 -0,0 -0,0c-0.003,3.552 1.407,6.959 3.917,9.471c2.511,2.512 5.917,3.924 9.469,3.924l0,-0l0.008,-13.395Z" style="fill:#fff;"/><path d="M290.92,177.049l13.395,-0c-0,-0 -0,0 -0,0c0.002,3.552 -1.407,6.959 -3.918,9.471c-2.511,2.512 -5.917,3.924 -9.468,3.924l-0.001,-0l-0.008,-13.395Z" style="fill:#fff;"/><path d="M305.316,117.024l9.471,-9.471c0,-0 -1.022,-1.024 -2.394,-2.398c-1.875,-1.877 -4.419,-2.932 -7.073,-2.933c-2.653,-0.001 -5.198,1.053 -7.074,2.929c-1.373,1.373 -2.396,2.396 -2.396,2.396l9.466,9.477Z" style="fill:#fff;"/><path d="M324.4,130.326l-13.394,-0l-0.038,61.218l13.394,0l0.038,-61.218Z" style="fill:#fff;"/><path d="M262.582,43.103l-38.939,0c0,0 0,0.001 0,0.001c-0.002,3.551 1.408,6.958 3.918,9.471c2.511,2.512 5.917,3.923 9.468,3.923c11.265,0 25.545,0 25.545,0l0.008,-13.395Z" style="fill:#fff;"/><path d="M243.267,150.868c-0,-14.506 9.34,-27.363 23.137,-31.846l4.127,12.702c-8.294,2.695 -13.909,10.424 -13.909,19.144l-13.355,0Z" style="fill:#fff;"/><path d="M290.92,163.81c18.493,0 33.484,-14.991 33.484,-33.484l-13.355,-0c0,11.117 -9.012,20.129 -20.129,20.129l-0,13.355Z" style="fill:#fff;"/><path d="M237.046,98.336c18.493,-0 33.485,14.991 33.485,33.484l-13.355,0c-0,-11.117 -9.013,-20.129 -20.13,-20.129l0,-13.355Z" style="fill:#fff;"/><path d="M314.605,107.359c6.28,6.28 9.808,14.797 9.808,23.677l-13.356,0c0,-5.338 -2.12,-10.458 -5.895,-14.233l9.443,-9.444Z" style="fill:#fff;"/><path d="M203.483,131.82c0,-18.493 14.992,-33.484 33.485,-33.484l-0,13.355c-11.117,0 -20.129,9.012 -20.129,20.129l-13.356,0Z" style="fill:#fff;"/><path d="M203.476,49.977c0,-18.493 14.992,-33.484 33.485,-33.484l-0,13.355c-11.117,-0 -20.13,9.012 -20.13,20.129l-13.355,0Z" style="fill:#fff;"/><path d="M237.046,63.193l-0.003,0c-7.397,0 -13.395,5.995 -13.4,13.392c0,0.002 0,0.003 0,0.003l13.395,-0l0.008,-13.395Z" style="fill:#fff;"/><path d="M223.566,23.687l-0,20.61l13.395,0.009l-0,-20.61l-13.395,-0.009Z" style="fill:#fff;"/><path d="M290.928,150.415l-53.956,0l-0.008,13.395l53.956,0l0.008,-13.395Z" style="fill:#fff;"/><path d="M290.92,210.533l-33.138,0l-0.008,13.395l33.138,0l0.008,-13.395Z" style="fill:#fff;"/></g><g id="l"><path d="M190.176,15.829l-0.001,-0c-3.552,-0 -6.959,1.411 -9.471,3.923c-2.512,2.512 -3.923,5.918 -3.923,9.471c-0,36.427 -0,134.587 -0,134.587l13.395,0l-0,-147.981Z" style="fill:#fff;"/></g><g id="u"><path d="M107.904,103.214c0.003,-3.552 -1.407,-6.959 -3.917,-9.471c-2.511,-2.512 -5.917,-3.924 -9.469,-3.924l-0,0l-0.025,40.507l13.395,-0c-0,-0 0.009,-15.316 0.016,-27.112Z" style="fill:#fff;"/><path d="M161.441,89.819l-0.003,0c-7.397,0 -13.395,5.995 -13.4,13.392c-0.007,11.797 -0.016,27.115 -0.016,27.115l13.394,-0l0.025,-40.507Z" style="fill:#fff;"/><path d="M94.472,130.326c0,18.493 14.992,33.484 33.485,33.484c18.493,0 33.484,-14.991 33.484,-33.484l-13.355,-0c-0,11.117 -9.012,20.129 -20.129,20.129c-11.117,-0 -20.129,-9.012 -20.129,-20.129l-13.356,-0Z" style="fill:#fff;"/></g><g id="v"><path d="M31.742,98.121c-1.814,-4.984 -6.552,-8.302 -11.856,-8.302c-2.502,0 -4.56,0 -4.56,0c-0,0 19.446,53.428 25.289,69.483c0.986,2.706 3.559,4.508 6.439,4.508c1.049,0 2.167,0 3.236,0c1.225,0 2.373,-0.597 3.075,-1.601c0.702,-1.003 0.871,-2.286 0.453,-3.436c-4.562,-12.534 -16.458,-45.217 -22.076,-60.652Z" style="fill:#fff;"/><path d="M65.879,98.121c1.814,-4.984 6.552,-8.302 11.856,-8.302c2.502,0 4.56,0 4.56,0c-0,0 -19.38,53.246 -25.259,69.4c-1.004,2.756 -3.624,4.591 -6.557,4.591c-0.978,0 -2.013,0 -3.01,0c-1.256,0 -2.434,-0.613 -3.154,-1.642c-0.721,-1.029 -0.894,-2.345 -0.464,-3.525c4.596,-12.628 16.429,-45.14 22.028,-60.522Z" style="fill:#fff;"/></g></g></g></svg>