<?xml version="1.0" encoding="UTF-8" standalone="no"?>
<!DOCTYPE svg PUBLIC "-//W3C//DTD SVG 1.1//EN" "http://www.w3.org/Graphics/SVG/1.1/DTD/svg11.dtd">
<svg width="100%" height="100%" viewBox="0 0 476 240" version="1.1" xmlns="http://www.w3.org/2000/svg" xmlns:xlink="http://www.w3.org/1999/xlink" xml:space="preserve" xmlns:serif="http://www.serif.com/" style="fill-rule:evenodd;clip-rule:evenodd;stroke-linejoin:round;stroke-miterlimit:2;">
    <g transform="matrix(1,0,0,1,0,-291)">
        <g id="Artboard2" transform="matrix(0.741083,0,0,0.918845,535.536,291.296)">
            <rect x="-722.64" y="0" width="641.085" height="259.852" style="fill:none;"/>
            <g id="vulbyte-logo" serif:id="vulbyte logo" transform="matrix(1.80745,0,0,1.45778,482.342,-56.4449)">
                <g id="e">
                    <g transform="matrix(-0.665461,-5.90019e-17,0.000410883,0.665461,-299.657,80.551)">
                        <path d="M70.014,105.555L70.01,105.555C61.711,105.555 54.986,112.28 54.986,120.579L54.986,120.582L70.014,120.582L70.014,105.555Z" style="fill:white;"/>
                    </g>
                    <g transform="matrix(1.65031,1.75155e-16,-0.000410883,-0.665461,-461.706,231.036)">
                        <path d="M70.014,105.555L69.068,105.555C66.569,105.555 64.545,110.576 64.545,116.773C64.545,118.956 64.545,120.582 64.545,120.582L70.014,120.582L70.014,105.555Z" style="fill:white;"/>
                    </g>
                    <g transform="matrix(6.12323e-17,-1,-1,-6.12323e-17,-348.763,130.007)">
                        <path d="M-0,24.998C13.806,24.998 24.998,13.806 24.998,0C24.998,-12.902 15.224,-23.521 2.676,-24.857C1.995,-24.921 1.319,-24.696 0.813,-24.236C0.308,-23.776 0.019,-23.124 0.019,-22.44C0,-19.486 0,-15.028 0,-15.028C8.3,-15.028 15.028,-8.3 15.028,0C15.028,8.3 8.3,15.028 -0,15.028L-0,24.998Z" style="fill:white;"/>
                    </g>
                    <g transform="matrix(6.12323e-17,1,-1,6.12323e-17,-348.788,135.795)">
                        <path d="M-0,24.998C13.806,24.998 24.998,13.806 24.998,0L15.028,0C15.028,8.3 8.3,15.028 -0,15.028L-0,24.998Z" style="fill:white;"/>
                    </g>
                </g>
                <g id="t">
                    <g transform="matrix(-0.665461,-5.90019e-17,0.000410883,0.665461,-344.408,80.5531)">
                        <path d="M70.014,105.555L70.01,105.555C61.711,105.555 54.986,112.28 54.986,120.579L54.986,120.582L70.014,120.582L70.014,105.555Z" style="fill:white;"/>
                    </g>
                    <g transform="matrix(0.665461,0,0,5.6883,-452.546,-550.11)">
                        <path d="M70.014,105.555L70.013,105.555C66.028,105.555 62.206,105.74 59.388,106.07C56.57,106.399 54.986,106.847 54.986,107.313C54.986,111.279 54.986,120.582 54.986,120.582L70.014,120.582L70.014,105.555Z" style="fill:white;"/>
                    </g>
                    <g transform="matrix(4.07477e-17,0.665461,-1.66354,1.01862e-16,-205.369,68.9503)">
                        <path d="M70.014,111.566C70.014,109.972 68.431,108.443 65.613,107.315C62.795,106.188 58.973,105.555 54.987,105.555L54.986,105.555L54.986,120.582L70.014,120.582L70.014,111.566Z" style="fill:white;"/>
                    </g>
                    <g transform="matrix(3.82483e-17,0.624641,-0.663265,4.06133e-17,-293.784,94.0794)">
                        <path d="M70.014,106.954C70.014,106.583 69.857,106.227 69.578,105.965C69.3,105.702 68.922,105.555 68.528,105.555C65.651,105.555 59.35,105.555 56.472,105.555C56.078,105.555 55.7,105.702 55.422,105.965C55.143,106.227 54.986,106.583 54.986,106.954C54.986,109.818 54.986,116.319 54.986,119.183C54.986,119.554 55.143,119.91 55.422,120.172C55.7,120.435 56.078,120.582 56.472,120.582C59.35,120.582 65.651,120.582 68.528,120.582C68.922,120.582 69.3,120.435 69.578,120.172C69.857,119.91 70.014,119.554 70.014,119.183C70.014,116.319 70.014,109.818 70.014,106.954Z" style="fill:white;"/>
                    </g>
                    <g transform="matrix(-4.5297e-18,0.665461,2.07129,2.17369e-16,-573.656,89.8272)">
                        <path d="M70.014,109.829C70.014,108.695 68.612,107.608 66.117,106.807C63.622,106.005 60.239,105.555 56.71,105.555C56.71,105.555 56.71,105.555 56.71,105.555C55.758,105.555 54.986,105.803 54.986,106.108C54.986,108.481 54.986,117.776 54.986,120.069C54.986,120.205 55.155,120.335 55.454,120.432C55.754,120.528 56.16,120.582 56.584,120.582L56.587,120.582C64.002,120.582 70.014,118.651 70.014,116.268C70.014,114.247 70.014,111.845 70.014,109.829Z" style="fill:white;"/>
                    </g>
                    <g transform="matrix(6.12323e-17,1,-1,6.12323e-17,-390.956,135.797)">
                        <path d="M-0,24.998C13.806,24.998 24.998,13.806 24.998,0L15.028,0C15.028,8.3 8.3,15.028 -0,15.028L-0,24.998Z" style="fill:white;"/>
                    </g>
                </g>
                <g id="by">
                    <g transform="matrix(6.12323e-17,1,-1,6.12323e-17,-489.766,135.795)">
                        <path d="M-0,24.998C13.806,24.998 24.998,13.806 24.998,0L15.028,0C15.028,8.3 8.3,15.028 -0,15.028L-0,24.998Z" style="fill:white;"/>
                    </g>
                    <g transform="matrix(1,1.22465e-16,-1.22465e-16,1,-489.711,70.6784)">
                        <path d="M-0,24.998C13.806,24.998 24.998,13.806 24.998,0L15.028,0C15.028,8.3 8.3,15.028 -0,15.028L-0,24.998Z" style="fill:white;"/>
                    </g>
                    <g transform="matrix(1,0,0,1,-449.485,180.677)">
                        <path d="M-0,24.998C13.806,24.998 24.998,13.806 24.998,0L15.028,0C15.028,8.3 8.3,15.028 -0,15.028L-0,24.998Z" style="fill:white;"/>
                    </g>
                    <g transform="matrix(-1,0,0,-1,-449.232,195.676)">
                        <path d="M-0,24.998C13.806,24.998 24.998,13.806 24.998,0L15.028,0C15.028,8.3 8.3,15.028 -0,15.028L-0,24.998Z" style="fill:white;"/>
                    </g>
                    <g transform="matrix(0.665461,0,-0.00249914,4.04758,-551.052,-351.831)">
                        <rect x="54.986" y="105.555" width="15.027" height="15.027" style="fill:white;"/>
                    </g>
                    <g transform="matrix(0.665461,0,-0.000410883,0.665461,-536.253,25.4341)">
                        <path d="M70.014,105.555L54.986,105.555L54.986,105.555C54.986,109.54 56.57,113.362 59.388,116.18C62.207,118.999 66.029,120.582 70.013,120.582L70.014,120.582L70.014,105.555Z" style="fill:white;"/>
                    </g>
                    <g transform="matrix(-0.665461,0,0.000410883,0.665461,-402.937,100.435)">
                        <path d="M70.014,105.555L54.986,105.555L54.986,105.555C54.986,109.54 56.57,113.362 59.388,116.18C62.207,118.999 66.029,120.582 70.013,120.582L70.014,120.582L70.014,105.555Z" style="fill:white;"/>
                    </g>
                    <g transform="matrix(-0.470552,0.470552,-0.470261,-0.470842,-356.154,142.62)">
                        <path d="M70.014,105.555L54.986,105.555L54.986,109.356C54.986,112.333 56.169,115.188 58.275,117.294C60.38,119.399 63.236,120.582 66.212,120.582L70.014,120.582L70.014,105.555Z" style="fill:white;"/>
                    </g>
                    <g transform="matrix(0.665461,0,-0.00187788,3.04139,-470.883,-185.238)">
                        <rect x="54.986" y="105.555" width="15.027" height="15.027" style="fill:white;"/>
                    </g>
                    <g transform="matrix(1.93451,0,-0.000410883,0.665461,-606.039,0.435803)">
                        <path d="M70.014,105.555L54.986,105.555L54.986,105.555C54.986,109.54 55.531,113.362 56.501,116.18C57.47,118.999 58.785,120.582 60.156,120.582C64.503,120.582 70.014,120.582 70.014,120.582L70.014,105.555Z" style="fill:white;"/>
                    </g>
                    <g transform="matrix(-6.12323e-17,-1,-1,6.12323e-17,-460.063,151.132)">
                        <path d="M-0,24.998C10.83,24.998 20.428,18.025 23.775,7.725L14.292,4.644C12.28,10.836 6.51,15.028 -0,15.028L-0,24.998Z" style="fill:white;"/>
                    </g>
                    <g transform="matrix(1,-9.95799e-17,9.95799e-17,1,-449.485,135.795)">
                        <path d="M-0,24.998C13.806,24.998 24.998,13.806 24.998,0L15.028,0C15.028,8.3 8.3,15.028 -0,15.028L-0,24.998Z" style="fill:white;"/>
                    </g>
                    <g transform="matrix(1,0,0,-1,-489.705,136.911)">
                        <path d="M-0,24.998C13.806,24.998 24.998,13.806 24.998,0L15.028,0C15.028,8.3 8.3,15.028 -0,15.028L-0,24.998Z" style="fill:white;"/>
                    </g>
                    <g transform="matrix(1,0,0,-1,-449.479,136.326)">
                        <path d="M17.676,17.676C22.365,12.988 24.998,6.63 24.998,0L15.028,0C15.028,3.986 13.444,7.808 10.626,10.626L17.676,17.676Z" style="fill:white;"/>
                    </g>
                    <g transform="matrix(6.12323e-17,-1,-1,-6.12323e-17,-489.763,136.911)">
                        <path d="M-0,24.998C13.806,24.998 24.998,13.806 24.998,0L15.028,0C15.028,8.3 8.3,15.028 -0,15.028L-0,24.998Z" style="fill:white;"/>
                    </g>
                    <g transform="matrix(6.12323e-17,-1,-1,-6.12323e-17,-489.769,75.81)">
                        <path d="M-0,24.998C13.806,24.998 24.998,13.806 24.998,0L15.028,0C15.028,8.3 8.3,15.028 -0,15.028L-0,24.998Z" style="fill:white;"/>
                    </g>
                    <g transform="matrix(0.665461,5.90019e-17,-0.000410883,0.665461,-536.253,15.4341)">
                        <path d="M70.014,105.555L70.01,105.555C61.711,105.555 54.986,112.28 54.986,120.579L54.986,120.582L70.014,120.582L70.014,105.555Z" style="fill:white;"/>
                    </g>
                    <g transform="matrix(6.12498e-17,-1.02393,0.665461,0.000410883,-570.011,127.829)">
                        <rect x="54.986" y="105.555" width="15.027" height="15.027" style="fill:white;"/>
                    </g>
                    <g transform="matrix(2.68058,0,-0.000410883,0.665461,-637.113,80.551)">
                        <rect x="54.986" y="105.555" width="15.027" height="15.027" style="fill:white;"/>
                    </g>
                    <g transform="matrix(1.6463,0,-0.000410883,0.665461,-564.705,125.433)">
                        <rect x="54.986" y="105.555" width="15.027" height="15.027" style="fill:white;"/>
                    </g>
                </g>
                <g transform="matrix(0.665461,0,0,7.35185,-571.288,-725.707)">
                    <g id="l">
                        <path d="M70.014,105.555L70.013,105.555C66.028,105.555 62.206,105.698 59.388,105.953C56.57,106.208 54.986,106.554 54.986,106.915C54.986,110.614 54.986,120.582 54.986,120.582L70.014,120.582L70.014,105.555Z" style="fill:white;"/>
                    </g>
                </g>
                <g id="u">
                    <g transform="matrix(0.665461,0,-0.00124253,2.01238,-632.571,-106.862)">
                        <path d="M70.014,110.524C70.014,109.206 68.43,107.942 65.612,107.01C62.794,106.078 58.971,105.555 54.987,105.555L54.986,105.555L54.986,120.582L70.014,120.582L70.014,110.524Z" style="fill:white;"/>
                    </g>
                    <g transform="matrix(0.665461,0,-0.00124253,2.01238,-592.609,-106.862)">
                        <path d="M70.014,105.555L70.01,105.555C61.711,105.555 54.986,107.779 54.986,110.523C54.986,114.899 54.986,120.582 54.986,120.582L70.014,120.582L70.014,105.555Z" style="fill:white;"/>
                    </g>
                    <g transform="matrix(6.12323e-17,1,-1,6.12323e-17,-571.147,135.795)">
                        <path d="M-0,24.998C13.806,24.998 24.998,13.806 24.998,0C24.998,-13.806 13.806,-24.998 0,-24.998L0,-15.028C8.3,-15.028 15.028,-8.3 15.028,0C15.028,8.3 8.3,15.028 -0,15.028L-0,24.998Z" style="fill:white;"/>
                    </g>
                </g>
                <g id="v">
                    <g transform="matrix(0.665461,0,1.33793,3.67592,-833.049,-282.457)">
                        <path d="M70.014,107.241C70.014,106.229 66.053,105.555 60.103,105.555C57.295,105.555 54.986,105.555 54.986,105.555L54.986,119.666C54.986,120.216 57.137,120.582 60.369,120.582C61.546,120.582 62.799,120.582 63.999,120.582C65.373,120.582 66.905,120.461 68.103,120.257C69.3,120.053 70.014,119.793 70.014,119.559C70.014,117.014 70.014,110.376 70.014,107.241Z" style="fill:white;"/>
                    </g>
                    <g transform="matrix(-0.665461,0,-1.33793,3.67592,-427.42,-282.457)">
                        <path d="M70.014,107.241C70.014,106.229 66.053,105.555 60.103,105.555C57.295,105.555 54.986,105.555 54.986,105.555L54.986,119.65C54.986,120.209 57.177,120.582 60.468,120.582L63.844,120.582C65.254,120.582 66.825,120.458 68.053,120.249C69.282,120.04 70.014,119.772 70.014,119.533C70.014,116.968 70.014,110.365 70.014,107.241Z" style="fill:white;"/>
                    </g>
                </g>
            </g>
        </g>
    </g>
</svg>
